<svg xmlns="http://www.w3.org/2000/svg" width="1510.391" height="1037.31" viewBox="0 0 1510.391 1037.31">
  <g id="Gruppe_5" data-name="Gruppe 5" transform="translate(-204.804 -21.345)">
    <g id="Gruppe_3" data-name="Gruppe 3">
      <path id="Pfad_1" data-name="Pfad 1" d="M23.3,80.753,983.7-69.6,840.523,676.876l-853.977,55.83Z" transform="translate(731.498 90.946)" fill="#86a6e1"/>
      <path id="Pfad_2" data-name="Pfad 2" d="M-6.291-11.627,763.867,43.009l3.6,690.579L-5.864,602.024Z" transform="translate(606.761 325.067)" fill="#566f9f" opacity="0.9"/>
      <path id="Pfad_3" data-name="Pfad 3" d="M-11.83-4.12,901.3,99.077l32.305,643.636L62.925,698.093Z" transform="translate(216.635 163.634)" fill="#2c3b56" opacity="0.95"/>
    </g>
    <path id="Pfad_5" data-name="Pfad 5" d="M-120.6-15.6q0,4.4-5.8,10T-136.6,0H-177q-6,0-11.2-5.6T-193.4-16V-234q0-14-25.2-14-25.6,0-25.6,13.2V-15.6A14.922,14.922,0,0,1-249-4.8,15.35,15.35,0,0,1-260.2,0H-301q-1.6,0-8.8-5.6T-317-16V-234q0-14-25.6-14t-25.6,13.2V-15.6q0,4.4-5.8,10T-384.2,0H-425q-4.4,0-10.2-5.8T-441-16V-256q0-7.6,7.6-12a24.592,24.592,0,0,1,13.2-4h254.4q20.8,0,33,10.4t12.2,29.2Zm280-24q0,15.2-13.2,27.4T119,0H-23.4q-18,0-29.2-11.8A40.028,40.028,0,0,1-63.8-40.4V-231.6q0-16.8,12.8-28.6T-18.6-272H114.2q21.6,0,33.4,13.4t11.8,35a34.149,34.149,0,0,1-4.2,16.8q-4.2,7.6-11.8,7.6H100.2q-4,0-10-6t-6-10V-234q0-3.6-4.8-8.6t-8.8-5H25q-4.4,0-9,4.2t-4.6,8.6V-37.2q0,3.2,4.8,8T25-24.4H70.6q13.6,0,13.6-25.2V-52q0-23.2-13.6-23.2H51.8q-7.6,0-12.4-8.8a34.394,34.394,0,0,1-3.6-15.6,32.731,32.731,0,0,1,3.6-14.8q4.8-9.6,12.4-9.6h91.6q4.4,0,10.2,5.6t5.8,10ZM441-15.6q0,4.4-5.8,10T425,0H384.2Q379.8,0,374-5.8T368.2-16V-61.6q0-3.6-4.8-8.6t-8.8-5h-48q-4.4,0-9,4.2T293-62.4v46.8q0,4.4-5.8,10T277,0H236.2Q231.8,0,226-5.8T220.2-16V-59.2q0-12,10.4-21T241-99.6q0-12-10.4-20T220.2-140V-256q0-7.6,7.6-12a24.592,24.592,0,0,1,13.2-4h31.2q6.4,0,13.6,4.2t7.2,11.4v119.6q0,3.2,4.8,8t8.8,4.8h48q4.4,0,9-4.4t4.6-9.2V-256q0-4,6.2-10t9.8-6H425q4.4,0,10.2,5.6t5.8,10v117.2q0,12.4-10.4,21.4T420.2-99.6q0,15.2,10.4,22t10.4,18Z" transform="translate(960 683)" fill="#fff"/>
  </g>
</svg>
